<svg width="657" height="711" viewBox="0 0 657 711" fill="none" xmlns="http://www.w3.org/2000/svg">
<g clip-path="url(#clip0_504_540)">
<path d="M309.5 292C310 292.2 310.5 292.3 310.9 292.5C311.3 295.1 311.7 297.6 312.1 300.2C313.6 311.8 318.4 321.2 329.3 326.6C339.2 331.5 349.7 332.8 360.4 330.2C382.9 324.7 398.3 310.7 406.6 289.2C409.4 281.9 411.6 274.3 413.3 266.7C422.1 226.9 430.7 187.1 439.3 147.2C444.2 124.6 449.7 102.1 453.6 79.4C458.2 52.7 448.4 34 425.4 23.1C382 2.8 336.6 -4.7 289.2 2.9C240.7 10.7 196.8 29.4 160.2 62.8C101.1 116.7 73.7 184 82 263.6C89.5 335.2 125.6 391 185 431C235.6 465.1 291.9 477.2 352.4 470.2C403.9 464.3 448.5 443.1 486.1 407.7C535.6 361.1 558.7 302.9 559.2 235.4C559.3 217.7 557.5 200.1 551.1 183.5C544.7 167 528.3 156.5 513.5 158.8C494.2 161.7 481.5 179.6 484.9 199.4C488.5 219.7 489.6 240.1 486.3 260.5C477.5 315.3 450.1 357.3 400.2 382.9C372 397.4 341.5 402.2 310 400.3C259.9 397.2 217.7 377.7 186.7 337.6C157.9 300.4 145.8 258.1 153.7 211C166.7 132.9 235.6 76.7 302.5 71.9C319.5 70.7 336.5 69.8 352.9 75.3C365.9 79.7 373.3 88.8 373.9 102.7C374.2 108.1 373.7 113.7 372.7 119.1C369.8 133.5 366.5 147.7 363.3 162C362.9 163.8 362 165.5 360.7 168.5C358.2 164.7 356.4 161.9 354.5 159.3C343.5 143.3 328.3 134.5 308.9 133.7C283.1 132.6 259.3 139.6 237.2 152.8C192.1 179.8 168.8 234.9 182.2 284.4C188.8 308.8 204.2 325.5 228.8 331.9C254.2 338.4 276.2 331 293.9 311.6C298.1 306.9 301.7 301.6 305.6 296.7C306.9 294.8 308.2 293.4 309.5 292ZM91.8 621.5C91.8 642 91.7001 662.4 91.8 682.9C91.9 698.5 101.4 707.6 116.9 707.6C130 707.6 143.2 707.6 156.3 707.5C168.6 707.4 180.9 707.7 193.2 706.7C205.7 705.7 213 693.7 209.5 681.6C206.5 671.2 199.5 666.2 187.3 666C174.7 665.8 162 666 149.4 666C135.5 666 135.5 666 136.2 652.3C136.7 642 137.8 641.5 148.3 641.7C158.2 641.9 168.2 641.6 178.1 640.6C187.8 639.6 193.7 631.9 193.5 622.2C193.3 611 185.6 602.6 174.2 602C163.6 601.4 152.9 601.4 142.3 601.3C138.1 601.3 136.1 599.5 136.2 595.3C136.3 591.3 136.2 587.3 136.1 583.3C136.1 580 137.7 578.5 141 578.5C148.7 578.5 156.3 578.4 164 578.3C173.5 578.2 183 578.5 192.4 577.7C205.9 576.5 213.7 563.3 208.9 550.7C205.1 540.9 198 536 186.4 536C163.1 535.9 139.8 536 116.5 536C99.9 536 91.8 544.3 91.7 561C91.8 581.2 91.8 601.3 91.8 621.5ZM595.8 710.2C599.9 709.6 606.2 709.1 612.3 707.5C641.8 699.9 659.5 674.2 655.7 644.2C653.9 629.7 646 619.1 633 612.9C620.7 607 608 602.2 595.5 596.7C592.5 595.4 589.4 593.8 587 591.7C579.6 585 581.7 576.1 591.1 573C596.4 571.2 601.2 572.2 606 574.6C612.2 577.7 618.4 581.1 624.7 584C634.1 588.3 642.7 584.8 646.9 575.4C652.1 563.7 649.7 553.5 638.5 545.8C615.8 530.2 591.7 526.6 566.7 540.4C542.2 553.9 532.5 582.7 544 607.2C550.5 621.1 562 628.9 575.9 634.1C586 637.9 596.1 641.9 606.1 645.8C610.8 647.7 613.9 651 613.9 656.3C613.9 661.3 611 664.5 606.5 666.6C601 669.2 595.1 670.5 589.6 668.2C582.2 665.1 575.2 660.8 568 657.2C564.9 655.6 561.8 653.7 558.5 653.1C551.3 651.8 545.3 654.6 541.3 660.7C536.6 667.9 536.4 675.4 541 682.8C553.3 701.9 571.6 709.4 595.8 710.2ZM421.8 636.5H421.7C421.7 645.2 421.7 653.8 421.7 662.5C421.7 671.3 421.6 680.1 421.8 689C422.1 698.8 427.1 705.1 436.2 707.7C450.8 711.9 463.2 703 464 687.9C464.1 686.1 464.1 684.2 464.1 682.4C464.1 650.8 464.1 619.2 464.1 587.5C464.1 580.4 465.3 579.2 472.5 578.9C479.8 578.6 487.1 578.2 494.4 577.9C508.4 577.3 520.1 561.8 509.9 547.1C504.7 539.6 497.5 536.3 488.7 536.2C459.9 536.2 431.1 536.2 402.3 536.1C398.5 536.1 394.6 536 390.8 536.3C379.6 537.2 372.3 544.7 371.5 556.2C370.7 566.5 376.8 575.2 387.5 576.9C396.1 578.3 405 578.4 413.8 578.4C420.8 578.4 421.8 578.7 421.8 585.6C421.8 602.5 421.8 619.5 421.8 636.5ZM253.1 621.3C253.2 621.3 253.2 621.3 253.3 621.3C253.3 642.6 253.2 663.9 253.4 685.2C253.5 698.8 262.1 707.1 275.7 707.4C282 707.5 288.3 707.4 294.7 707.4C313.2 707.3 331.6 707.4 350.1 706.7C354 706.6 359 704.4 361.3 701.5C367 694.4 368.5 685.7 364.5 677.1C360.8 669.2 353.9 666.1 345.4 666.1C332.3 666.2 319.1 666.1 306 666.1C297.6 666.1 296.8 665.4 296.8 657.1C296.7 623.3 296.7 589.6 296.6 555.8C296.6 544.8 290.8 538 280 536C266.1 533.4 253.7 542.5 253.3 556.5C252.8 578 253.1 599.7 253.1 621.3ZM583.1 115.2C612.1 115.3 635.6 91.8 635.5 63C635.4 34.4 611.9 10.9 583.3 10.9C554.6 10.9 531.2 34.3 531.2 63C531.2 91.8 554.4 115.1 583.1 115.2ZM43.6 621.8C43.6 599.8 43.7001 577.9 43.5 555.9C43.4001 544.5 35 536.1 23.8 535.3C11.4 534.5 1.90005 541.6 0.400049 553.4C-0.199951 558.3 -0.0999512 563.4 -0.0999512 568.3C-0.0999512 606.9 -0.0999512 645.5 -0.0999512 684.1C-0.0999512 691.4 1.30005 698.1 7.20005 703C14.4 709 22.7001 709.8 31.1 706.3C39.4001 702.8 43.6 696.1 43.6 687C43.7 665.4 43.6 643.6 43.6 621.8Z" fill="white"/>
<path d="M309.5 292C308.2 293.4 306.9 294.8 305.7 296.3C301.8 301.3 298.3 306.6 294 311.2C276.3 330.6 254.3 338 228.9 331.5C204.3 325.2 188.9 308.4 182.3 284C168.9 234.6 192.2 179.4 237.3 152.4C259.4 139.2 283.2 132.2 309 133.3C328.4 134.1 343.6 142.9 354.6 158.9C356.4 161.6 358.2 164.3 360.8 168.1C362 165.1 362.9 163.4 363.4 161.6C366.6 147.3 370 133.1 372.8 118.7C373.9 113.4 374.3 107.8 374 102.3C373.3 88.5 366 79.3 353 74.9C336.5 69.4 319.5 70.3 302.6 71.5C235.7 76.3 166.8 132.5 153.8 210.6C146 257.7 158 300 186.8 337.2C217.8 377.2 260 396.8 310.1 399.9C341.6 401.8 372.1 397 400.3 382.5C450.2 356.9 477.6 314.9 486.4 260.1C489.7 239.7 488.5 219.3 485 199C481.5 179.2 494.3 161.4 513.6 158.4C528.4 156.1 544.8 166.7 551.2 183.1C557.7 199.8 559.5 217.3 559.3 235C558.8 302.5 535.7 360.7 486.2 407.3C448.6 442.7 404 463.9 352.5 469.8C292 476.8 235.7 464.7 185.1 430.6C125.7 390.6 89.6001 334.8 82.1001 263.2C73.8001 183.5 101.2 116.3 160.3 62.4C196.9 29 240.7 10.3 289.3 2.5C336.7 -5.1 382.1 2.3 425.4 22.7C448.5 33.6 458.2 52.3 453.6 79C449.7 101.8 444.2 124.2 439.3 146.8C430.7 186.6 422.1 226.5 413.3 266.3C411.6 273.9 409.4 281.5 406.6 288.8C398.3 310.3 383 324.3 360.4 329.8C349.7 332.4 339.2 331.1 329.3 326.2C318.4 320.8 313.6 311.3 312.1 299.8C311.8 297.2 311.3 294.7 310.9 292.1C310.5 292.3 310 292.1 309.5 292ZM245.2 249.9C245.2 252.2 245 254.6 245.2 256.9C247.5 278.2 264 288.5 283.3 280.9C308.6 271 327.4 233.6 320.2 207.5C316.6 194.5 308.1 186.5 296 186.9C289.8 187.1 282.9 188.9 277.6 192.1C256.4 205.2 246.5 225.3 245.2 249.9Z" fill="#111C28"/>
<path d="M91.8001 621.5C91.8001 601.4 91.8001 581.2 91.8001 561.1C91.8001 544.4 100 536.2 116.6 536.1C139.9 536.1 163.2 536 186.5 536.1C198.2 536.1 205.3 541 209 550.8C213.8 563.4 206.1 576.6 192.5 577.8C183.1 578.6 173.6 578.3 164.1 578.4C156.4 578.5 148.8 578.6 141.1 578.6C137.8 578.6 136.2 580.1 136.2 583.4C136.2 587.4 136.3 591.4 136.3 595.4C136.2 599.6 138.2 601.3 142.4 601.4C153 601.5 163.7 601.6 174.3 602.1C185.7 602.7 193.4 611 193.6 622.3C193.8 632 187.9 639.7 178.2 640.7C168.3 641.7 158.3 642 148.4 641.8C137.9 641.5 136.8 642.1 136.3 652.4C135.6 666.1 135.6 666.1 149.5 666.1C162.1 666.1 174.8 666 187.4 666.1C199.6 666.3 206.5 671.3 209.6 681.7C213.1 693.8 205.7 705.8 193.3 706.8C181.1 707.7 168.7 707.5 156.4 707.6C143.3 707.7 130.1 707.7 117 707.7C101.5 707.7 92.0001 698.6 91.9001 683C91.7001 662.4 91.8001 641.9 91.8001 621.5Z" fill="#111C28"/>
<path d="M595.8 710.1C581.8 710.4 567.7 706.4 556.2 698.5C544.3 690.3 532 675 541.4 660.7C545.4 654.6 551.4 651.8 558.6 653.1C561.9 653.7 565 655.6 568.1 657.2C580.2 663.3 593.5 674.3 607.3 666.4C616.2 661.3 615.9 649.7 606.2 645.9C596.1 641.9 586.1 637.9 576 634.2C562.1 629.1 550.6 621.2 544.1 607.3C532.6 582.8 542.3 554 566.8 540.5C591.9 526.7 615.9 530.3 638.6 545.9C649.9 553.6 652.3 563.8 647 575.5C642.8 584.9 634.2 588.4 624.8 584.1C617.8 580.9 611.3 576.7 604.2 573.9C598.2 571.6 590.6 571.5 585.7 576.3C580.8 581 582.5 587.7 587.1 591.9C589.5 594.1 592.6 595.6 595.6 596.9C608.1 602.4 620.8 607.2 633.1 613.1C646.1 619.3 654 629.9 655.8 644.4C659.6 675 639.8 701.2 610.3 708.4C605.5 709.4 600.6 710 595.8 710.1Z" fill="#111C28"/>
<path d="M421.8 636.5C421.8 619.5 421.8 602.6 421.8 585.6C421.8 578.7 420.8 578.4 413.8 578.4C405 578.5 396.1 578.3 387.5 576.9C376.8 575.1 370.7 566.5 371.5 556.2C372.3 544.8 379.6 537.2 390.8 536.3C394.6 536 398.5 536.1 402.3 536.1C431.1 536.1 459.9 536.1 488.7 536.2C497.6 536.2 504.7 539.5 509.9 547.1C520.1 561.8 508.4 577.3 494.4 577.9C487.1 578.2 479.8 578.6 472.5 578.9C465.3 579.2 464.1 580.3 464.1 587.5C464.1 619.1 464.1 650.7 464.1 682.4C464.1 684.2 464.1 686.1 464 687.9C463.2 703.1 450.8 711.9 436.2 707.7C427.2 705.1 422.1 698.8 421.8 689C421.5 680.2 421.7 671.4 421.7 662.5C421.7 653.8 421.7 645.2 421.7 636.5C421.8 636.5 421.8 636.5 421.8 636.5Z" fill="#111C28"/>
<path d="M253.1 621.3C253.1 599.7 252.7 578 253.2 556.4C253.5 542.4 266 533.2 279.9 535.9C290.7 537.9 296.4 544.7 296.5 555.7C296.6 589.5 296.6 623.2 296.7 657C296.7 665.3 297.5 666 305.9 666C319 666 332.2 666 345.3 666C353.9 666 360.7 669.1 364.4 677C368.4 685.6 366.8 694.3 361.2 701.4C358.9 704.3 353.9 706.5 350 706.6C331.6 707.3 313.1 707.2 294.6 707.3C288.3 707.4 282 707.4 275.6 707.3C262 707.1 253.4 698.8 253.3 685.1C253.1 663.8 253.2 642.5 253.2 621.2C253.2 621.3 253.2 621.3 253.1 621.3Z" fill="#111C28"/>
<path d="M583.1 115.2C554.3 115.1 531.2 91.9 531.3 63C531.3 34.3 554.7 10.9 583.4 10.9C612 10.9 635.5 34.4 635.6 63C635.6 91.8 612.1 115.2 583.1 115.2Z" fill="#D7203A"/>
<path d="M43.6001 621.8C43.6001 643.6 43.6001 665.4 43.6001 687.2C43.6001 696.2 39.4001 703 31.1001 706.5C22.7001 710 14.4001 709.2 7.20008 703.2C1.40008 698.2 7.90898e-05 691.5 7.90898e-05 684.2C7.90898e-05 645.6 7.90898e-05 607 7.90898e-05 568.4C7.90898e-05 563.4 -0.199921 558.4 0.500079 553.5C2.00008 541.7 11.4001 534.6 23.9001 535.4C35.1001 536.1 43.5001 544.6 43.6001 556C43.8001 577.8 43.6001 599.8 43.6001 621.8Z" fill="#111C28"/>
<path d="M245.2 249.9C246.5 225.3 256.4 205.2 277.7 192.1C283 188.9 289.8 187.1 296.1 186.9C308.2 186.5 316.7 194.5 320.3 207.5C327.4 233.6 308.6 271 283.4 280.9C264.1 288.5 247.6 278.1 245.3 256.9C245 254.6 245.2 252.2 245.2 249.9Z" fill="white"/>
</g>
<defs>
<clipPath id="clip0_504_540">
<rect width="656.2" height="710.2" fill="white"/>
</clipPath>
</defs>
</svg>
