<svg width="21" height="21" viewBox="0 0 21 21" fill="none" xmlns="http://www.w3.org/2000/svg">
    <g clip-path="url(#clip0_442_453)">
        <path d="M20.8823 11.0208C20.8823 10.2014 20.8142 9.60347 20.667 8.9834H11.092V12.6817H16.7123C16.5991 13.6008 15.9872 14.9849 14.6274 15.915L14.6083 16.0388L17.6357 18.3306L17.8455 18.3511C19.7718 16.6126 20.8823 14.0548 20.8823 11.0208Z" fill="#4285F4"/>
        <path d="M11.092 20.7651C13.8455 20.7651 16.157 19.8792 17.8455 18.3512L14.6273 15.915C13.7662 16.5019 12.6104 16.9116 11.092 16.9116C8.39518 16.9116 6.10628 15.1732 5.29035 12.7704L5.17075 12.7803L2.0228 15.161L1.98163 15.2728C3.65864 18.5283 7.10336 20.7651 11.092 20.7651Z" fill="#34A853"/>
        <path d="M5.29036 12.7703C5.07507 12.1502 4.95047 11.4858 4.95047 10.7993C4.95047 10.1128 5.07507 9.44841 5.27903 8.82834L5.27333 8.69627L2.08592 6.27734L1.98164 6.32582C1.29046 7.67673 0.89386 9.19376 0.89386 10.7993C0.89386 12.4049 1.29046 13.9218 1.98164 15.2728L5.29036 12.7703Z" fill="#FBBC05"/>
        <path d="M11.092 4.6871C13.007 4.6871 14.2987 5.49542 15.0353 6.17091L17.9134 3.42481C16.1458 1.81924 13.8455 0.83374 11.092 0.83374C7.10337 0.83374 3.65864 3.07046 1.98163 6.32588L5.27903 8.82839C6.10628 6.42557 8.39519 4.6871 11.092 4.6871Z" fill="#EB4335"/>
    </g>
    <defs>
        <clipPath id="clip0_442_453">
            <rect width="20" height="20" fill="white" transform="translate(0.892822 0.83374)"/>
        </clipPath>
    </defs>
</svg>